<svg width="1024" height="1024" viewBox="0 0 1024 1024" fill="none" xmlns="http://www.w3.org/2000/svg">
<g clip-path="url(#clip0_10_70)">
<path d="M511.431 0C525.367 6.04328 541.532 14.5152 555.322 21.3049L649.891 68.3496C706.591 96.3171 767.374 124.433 822.911 153.537C774.391 198.217 716.382 244.686 665.559 288.865C698.532 320.749 731.869 352.346 765.569 383.653C809.302 347.835 852.769 311.765 895.946 275.445C916.51 258.36 939.873 238.166 961.225 222.227C975.985 231.88 1005.65 244.622 1023.23 254.594C1022.71 281.686 1023.71 309.77 1023.77 337.031L1024 522.441C1024.11 605.437 1021.9 690.476 1023.39 773.006C990.381 790.785 950.064 809.552 915.989 826.237L744.193 910.715L598.826 982.082C570.773 995.834 539.484 1011.91 510.522 1024C502.997 1019.45 484.856 1011.3 476.019 1007.01L408.026 973.86L194.443 868.797C247.058 824.156 302.751 781.522 355.783 736.339C324.737 708.322 283.432 668.687 255.392 639.16C231.609 656.685 204.742 680.217 181.768 699.328L60.288 800.111C40.8278 790.238 18.7865 780.44 0.189047 770.346C2.31817 714.591 0.152686 651.793 0 595.569L0.735553 252.542C16.9179 243.27 39.6815 232.718 56.9035 224.242L151.842 177.44L389.243 59.947C429.778 39.9762 471.267 20.3314 511.431 0Z" fill="#FC5318"/>
<path d="M511.734 172.154C515.2 172.267 525.173 172.859 527.536 174.972C565.113 208.608 601.055 245.161 638.488 278.888C600.789 308.969 565.513 340.09 528.238 369.807C528.517 348.436 521.61 330.543 495.859 323.415C472.553 316.963 442.213 338.256 422.256 348.629L315.642 403.96C307.709 408.193 302.611 410.702 294.246 414.213C288.036 411.912 282.18 408.888 276.256 406.091C233.267 385.792 188.851 367.962 145.218 348.749C177.167 331.602 218.628 312.804 251.849 296.945C299.385 273.722 347.087 250.757 394.953 228.052L469.88 191.696C482.205 185.68 499.18 176.585 511.734 172.154Z" fill="#E6E6E6"/>
<path d="M731.19 607.343C781.08 630.228 831.539 652.177 882.519 673.175L604.473 805.21C579.522 817.048 555.322 830.18 530.153 841.682C518.035 847.233 507.044 853.163 494.417 845.341L384.749 742.625C420.718 713.935 455.834 683.691 491.945 655.396C501.894 693.051 529.911 710.018 571.027 689.505C589.713 680.18 608.52 670.713 627.072 661.081L731.19 607.343Z" fill="#E6E6E6"/>
<path d="M646.049 316.951C651.951 319.637 730.887 394.838 742.436 405.26C721.52 424.99 698.556 443.096 676.114 461.549C642.523 489.509 608.568 517.134 574.25 544.421C507.662 598.104 441.48 652.169 375.716 706.614L373.75 707.44C369.051 704.401 352.591 687.832 347.51 682.997C324.691 661.437 302.068 639.721 279.645 617.851C294.709 603.879 316.145 587.127 332.498 573.813L426.157 497.379C480.637 451.551 535.873 406.4 591.834 361.94C610.253 347.078 626.963 331.185 646.049 316.951Z" fill="#E6E6E6"/>
</g>
<defs>
<clipPath id="clip0_10_70">
<rect width="1024" height="1024" fill="white"/>
</clipPath>
</defs>
</svg>
