<svg width="1024" height="1024" viewBox="0 0 1024 1024" fill="none" xmlns="http://www.w3.org/2000/svg">
<path d="M512.913 0C521.299 4.07799 531.026 9.79483 539.325 14.3765L596.232 46.1221C630.351 64.9952 666.928 83.9676 700.347 103.607C671.15 133.756 636.243 165.114 605.66 194.926C625.502 216.441 645.562 237.762 665.841 258.888C692.158 234.718 718.315 210.378 744.296 185.87C756.671 174.34 770.73 160.714 783.579 149.959C792.46 156.472 810.311 165.07 820.892 171.799C820.578 190.082 821.176 209.033 821.213 227.428L821.351 352.541C821.417 408.548 820.09 465.932 820.987 521.623C801.123 533.62 776.863 546.284 756.357 557.543L652.978 614.548L565.503 662.707C548.622 671.986 529.794 682.834 512.366 690.993C507.838 687.921 496.921 682.423 491.603 679.528L450.689 657.159L322.164 586.262C353.826 556.138 387.338 527.37 419.251 496.88C400.569 477.974 375.713 451.229 358.841 431.303C344.53 443.13 328.362 459.009 314.536 471.906L241.435 539.913C229.725 533.251 216.463 526.639 205.271 519.828C206.553 482.204 205.249 439.828 205.157 401.889L205.6 170.416C215.338 164.158 229.035 157.038 239.399 151.318L296.528 119.736L439.386 40.4521C463.778 26.9766 488.744 13.7196 512.913 0Z" fill="#FC5318"/>
<path d="M593.92 213.879C597.471 215.691 644.972 266.436 651.921 273.469C639.335 286.783 625.517 299 612.012 311.452C591.798 330.32 571.366 348.962 550.715 367.375C510.645 403.6 470.82 440.082 431.247 476.822L430.064 477.378C427.236 475.328 417.33 464.147 414.274 460.885C400.541 446.337 386.927 431.682 373.434 416.925C382.499 407.496 395.399 396.193 405.24 387.209L461.599 335.631C494.382 304.705 527.621 274.238 561.296 244.236C572.379 234.209 582.435 223.483 593.92 213.879Z" fill="#2F3941"/>
<path d="M645.154 409.833C675.175 425.277 705.539 440.088 736.217 454.257L568.901 543.354C553.887 551.342 539.325 560.204 524.179 567.965C516.887 571.711 510.273 575.713 502.675 570.434L436.681 501.121C458.326 481.761 479.457 461.353 501.187 442.26C507.174 467.669 524.033 479.118 548.775 465.276C560.02 458.983 571.337 452.595 582.501 446.095L645.154 409.833Z" fill="#2F3941"/>
<path d="M513.095 116.17C515.181 116.247 521.182 116.646 522.604 118.072C545.217 140.769 566.845 165.434 589.37 188.193C566.684 208.492 545.457 229.492 523.027 249.545C523.195 235.124 519.038 223.051 503.543 218.24C489.517 213.886 471.261 228.255 459.252 235.255L395.096 272.591C390.322 275.449 387.255 277.141 382.221 279.511C378.484 277.959 374.959 275.917 371.395 274.03C345.526 260.331 318.799 248.3 292.542 235.336C311.768 223.764 336.718 211.079 356.709 200.378C385.314 184.707 414.018 169.211 442.822 153.889L487.91 129.356C495.326 125.297 505.541 119.16 513.095 116.17Z" fill="#2F3941"/>
<path d="M1003.66 1023.56V991.45H1024V997.08H1010.3V1004.29H1022.42V1009.92H1010.3V1017.93H1024V1023.56H1003.66Z" fill="#E6E6E6"/>
<path d="M959.565 1024C957.365 1024 955.436 1023.6 953.778 1022.81C952.121 1021.99 950.824 1020.86 949.89 1019.43C948.985 1017.96 948.533 1016.26 948.533 1014.32V1000.69C948.533 998.722 948.985 997.022 949.89 995.585C950.824 994.147 952.121 993.033 953.778 992.242C955.436 991.42 957.365 991.01 959.565 991.01C961.796 991.01 963.724 991.42 965.352 992.242C967.01 993.033 968.29 994.147 969.194 995.585C970.129 997.022 970.596 998.722 970.596 1000.69H963.814C963.814 999.397 963.438 998.414 962.684 997.74C961.961 997.066 960.921 996.728 959.565 996.728C958.208 996.728 957.154 997.066 956.4 997.74C955.676 998.414 955.315 999.397 955.315 1000.69V1014.32C955.315 1015.58 955.676 1016.57 956.4 1017.27C957.154 1017.94 958.208 1018.28 959.565 1018.28C960.921 1018.28 961.961 1017.94 962.684 1017.27C963.438 1016.57 963.814 1015.58 963.814 1014.32V1011.55H958.932V1005.97H970.596V1014.32C970.596 1016.26 970.129 1017.96 969.194 1019.43C968.29 1020.86 967.01 1021.99 965.352 1022.81C963.724 1023.6 961.796 1024 959.565 1024Z" fill="#E6E6E6"/>
<path d="M892.733 1023.56L900.826 991.45H909.416L917.599 1023.56H910.682L909.099 1016.3H901.233L899.65 1023.56H892.733ZM902.363 1011.02H907.924L906.342 1003.28C906.132 1002.17 905.905 1001.07 905.663 999.983C905.453 998.869 905.287 998.004 905.166 997.388C905.047 998.004 904.88 998.854 904.669 999.939C904.488 1001.02 904.278 1002.12 904.036 1003.24L902.363 1011.02Z" fill="#E6E6E6"/>
<path d="M850.95 1024C847.604 1024 844.951 1023.12 842.993 1021.36C841.063 1019.6 840.099 1017.2 840.099 1014.15V991.45H846.881V1014.1C846.881 1015.45 847.227 1016.49 847.921 1017.23C848.644 1017.93 849.653 1018.28 850.95 1018.28C852.216 1018.28 853.21 1017.93 853.934 1017.23C854.657 1016.49 855.019 1015.45 855.019 1014.1V991.45H861.8V1014.15C861.8 1017.17 860.82 1019.57 858.862 1021.36C856.932 1023.12 854.296 1024 850.95 1024Z" fill="#E6E6E6"/>
<path d="M796.913 1024C794.712 1024 792.784 1023.6 791.126 1022.81C789.468 1021.99 788.173 1020.86 787.238 1019.43C786.334 1017.96 785.882 1016.26 785.882 1014.32V1000.69C785.882 998.722 786.334 997.022 787.238 995.585C788.173 994.147 789.468 993.033 791.126 992.242C792.784 991.42 794.712 991.01 796.913 991.01C799.143 991.01 801.072 991.42 802.7 992.242C804.358 993.033 805.639 994.147 806.543 995.585C807.478 997.022 807.944 998.722 807.944 1000.69H801.163C801.163 999.397 800.787 998.414 800.033 997.74C799.309 997.066 798.269 996.728 796.913 996.728C795.557 996.728 794.502 997.066 793.748 997.74C793.025 998.414 792.663 999.397 792.663 1000.69V1014.32C792.663 1015.58 793.025 1016.57 793.748 1017.27C794.502 1017.94 795.557 1018.28 796.913 1018.28C798.269 1018.28 799.309 1017.94 800.033 1017.27C800.787 1016.57 801.163 1015.58 801.163 1014.32V1011.55H796.28V1005.97H807.944V1014.32C807.944 1016.26 807.478 1017.96 806.543 1019.43C805.639 1020.86 804.358 1021.99 802.7 1022.81C801.072 1023.6 799.143 1024 796.913 1024Z" fill="#E6E6E6"/>
<path d="M731.664 1023.56V991.45H739.576L748.12 1016.3C748.03 1015.22 747.925 1013.97 747.804 1012.56C747.683 1011.13 747.578 1009.7 747.488 1008.3C747.428 1006.86 747.397 1005.64 747.397 1004.65V991.45H753.365V1023.56H745.453L736.999 998.708C737.089 999.646 737.18 1000.76 737.27 1002.05C737.36 1003.34 737.436 1004.65 737.496 1005.97C737.586 1007.29 737.632 1008.46 737.632 1009.48V1023.56H731.664Z" fill="#E6E6E6"/>
<path d="M675.864 1023.56L683.956 991.45H692.546L700.729 1023.56H693.812L692.23 1016.3H684.363L682.781 1023.56H675.864ZM685.494 1011.02H691.054L689.472 1003.28C689.262 1002.17 689.036 1001.07 688.794 999.983C688.584 998.869 688.418 998.004 688.297 997.388C688.177 998.004 688.011 998.854 687.799 999.939C687.618 1001.02 687.408 1002.12 687.166 1003.24L685.494 1011.02Z" fill="#E6E6E6"/>
<path d="M624.812 1023.56V991.45H631.594V1017.4H644.931V1023.56H624.812Z" fill="#E6E6E6"/>
<path d="M552.935 1024C550.734 1024 548.806 1023.6 547.148 1022.81C545.489 1021.99 544.194 1020.86 543.26 1019.43C542.355 1017.96 541.903 1016.26 541.903 1014.32V1000.69C541.903 998.722 542.355 997.022 543.26 995.585C544.194 994.147 545.489 993.033 547.148 992.242C548.806 991.42 550.734 991.01 552.935 991.01C555.165 991.01 557.094 991.42 558.722 992.242C560.38 993.033 561.66 994.147 562.564 995.585C563.499 997.022 563.966 998.722 563.966 1000.69H557.184C557.184 999.397 556.808 998.414 556.054 997.74C555.331 997.066 554.291 996.728 552.935 996.728C551.578 996.728 550.524 997.066 549.77 997.74C549.046 998.414 548.685 999.397 548.685 1000.69V1014.32C548.685 1015.58 549.046 1016.57 549.77 1017.27C550.524 1017.94 551.578 1018.28 552.935 1018.28C554.291 1018.28 555.331 1017.94 556.054 1017.27C556.808 1016.57 557.184 1015.58 557.184 1014.32V1011.55H552.302V1005.97H563.966V1014.32C563.966 1016.26 563.499 1017.96 562.564 1019.43C561.66 1020.86 560.38 1021.99 558.722 1022.81C557.094 1023.6 555.165 1024 552.935 1024Z" fill="#E6E6E6"/>
<path d="M487.685 1023.56V991.45H495.597L504.142 1016.3C504.052 1015.22 503.947 1013.97 503.826 1012.56C503.705 1011.13 503.6 1009.7 503.509 1008.3C503.449 1006.86 503.419 1005.64 503.419 1004.65V991.45H509.387V1023.56H501.475L493.02 998.708C493.111 999.646 493.201 1000.76 493.292 1002.05C493.382 1003.34 493.458 1004.65 493.518 1005.97C493.608 1007.29 493.653 1008.46 493.653 1009.48V1023.56H487.685Z" fill="#E6E6E6"/>
<path d="M434.372 1023.56V1017.84H440.928V997.168H434.372V991.45H454.265V997.168H447.709V1017.84H454.265V1023.56H434.372Z" fill="#E6E6E6"/>
<path d="M378.438 1023.56V991.45H386.078L389.107 1001.57C389.438 1002.62 389.679 1003.55 389.831 1004.34C390.012 1005.13 390.117 1005.69 390.147 1006.01C390.176 1005.69 390.267 1005.13 390.419 1004.34C390.599 1003.55 390.84 1002.62 391.142 1001.57L394.126 991.45H401.766V1023.56H395.573V1014.76C395.573 1013.15 395.602 1011.46 395.663 1009.7C395.753 1007.92 395.858 1006.14 395.979 1004.38C396.099 1002.62 396.235 1000.98 396.386 999.455C396.537 997.902 396.672 996.552 396.793 995.409L392.996 1009.92H387.254L383.275 995.409C383.425 996.494 383.576 997.798 383.727 999.324C383.878 1000.82 384.013 1002.45 384.134 1004.21C384.285 1005.94 384.406 1007.71 384.496 1009.53C384.586 1011.35 384.632 1013.09 384.632 1014.76V1023.56H378.438Z" fill="#E6E6E6"/>
<path d="M324.22 1023.56V991.45H331.861L334.89 1001.57C335.221 1002.62 335.461 1003.55 335.613 1004.34C335.794 1005.13 335.899 1005.69 335.93 1006.01C335.959 1005.69 336.049 1005.13 336.201 1004.34C336.382 1003.55 336.622 1002.62 336.924 1001.57L339.908 991.45H347.549V1023.56H341.355V1014.76C341.355 1013.15 341.384 1011.46 341.445 1009.7C341.536 1007.92 341.641 1006.14 341.762 1004.38C341.881 1002.62 342.017 1000.98 342.169 999.455C342.319 997.902 342.454 996.552 342.575 995.409L338.778 1009.92H333.036L329.057 995.409C329.208 996.494 329.358 997.798 329.51 999.324C329.66 1000.82 329.795 1002.45 329.916 1004.21C330.067 1005.94 330.188 1007.71 330.278 1009.53C330.369 1011.35 330.414 1013.09 330.414 1014.76V1023.56H324.22Z" fill="#E6E6E6"/>
<path d="M269.234 1023.56L277.326 991.45H285.916L294.099 1023.56H287.182L285.6 1016.3H277.733L276.151 1023.56H269.234ZM278.863 1011.02H284.424L282.842 1003.28C282.631 1002.17 282.405 1001.07 282.164 999.983C281.952 998.869 281.788 998.004 281.667 997.388C281.546 998.004 281.381 998.854 281.169 999.939C280.988 1001.02 280.777 1002.12 280.536 1003.24L278.863 1011.02Z" fill="#E6E6E6"/>
<path d="M216.824 1023.56V991.45H227.449C229.8 991.45 231.834 991.846 233.552 992.637C235.27 993.429 236.597 994.559 237.531 996.024C238.496 997.49 238.977 999.221 238.977 1001.21C238.977 1003.3 238.451 1005.16 237.395 1006.8C236.371 1008.44 234.97 1009.63 233.19 1010.36L239.43 1023.56H232.06L226.725 1011.42H223.561V1023.56H216.824ZM223.561 1005.7H227.449C228.957 1005.7 230.116 1005.34 230.93 1004.6C231.774 1003.87 232.196 1002.84 232.196 1001.52C232.196 1000.15 231.774 999.074 230.93 998.312C230.116 997.55 228.957 997.168 227.449 997.168H223.561V1005.7Z" fill="#E6E6E6"/>
<path d="M173.412 1024C171.213 1024 169.283 1023.6 167.625 1022.81C165.968 1021.99 164.672 1020.86 163.737 1019.43C162.833 1017.96 162.381 1016.26 162.381 1014.32V1000.69C162.381 998.722 162.833 997.022 163.737 995.585C164.672 994.147 165.968 993.033 167.625 992.242C169.283 991.42 171.213 991.01 173.412 991.01C175.643 991.01 177.571 991.42 179.199 992.242C180.857 993.033 182.138 994.147 183.042 995.585C183.977 997.022 184.443 998.722 184.443 1000.69H177.662C177.662 999.397 177.286 998.414 176.532 997.74C175.808 997.066 174.768 996.728 173.412 996.728C172.056 996.728 171.001 997.066 170.247 997.74C169.524 998.414 169.162 999.397 169.162 1000.69V1014.32C169.162 1015.58 169.524 1016.57 170.247 1017.27C171.001 1017.94 172.056 1018.28 173.412 1018.28C174.768 1018.28 175.808 1017.94 176.532 1017.27C177.286 1016.57 177.662 1015.58 177.662 1014.32V1011.55H172.779V1005.97H184.443V1014.32C184.443 1016.26 183.977 1017.96 183.042 1019.43C182.138 1020.86 180.857 1021.99 179.199 1022.81C177.571 1023.6 175.643 1024 173.412 1024Z" fill="#E6E6E6"/>
<path d="M119.015 1024C116.814 1024 114.901 1023.6 113.273 1022.81C111.646 1021.99 110.38 1020.86 109.475 1019.43C108.6 1017.96 108.164 1016.26 108.164 1014.32V1000.69C108.164 998.752 108.6 997.066 109.475 995.629C110.38 994.163 111.646 993.033 113.273 992.242C114.901 991.42 116.814 991.01 119.015 991.01C121.245 991.01 123.158 991.42 124.757 992.242C126.384 993.033 127.634 994.163 128.509 995.629C129.413 997.066 129.865 998.752 129.865 1000.69V1014.32C129.865 1016.26 129.413 1017.96 128.509 1019.43C127.634 1020.86 126.384 1021.99 124.757 1022.81C123.158 1023.6 121.245 1024 119.015 1024ZM119.015 1018.28C120.371 1018.28 121.38 1017.94 122.044 1017.27C122.737 1016.57 123.084 1015.58 123.084 1014.32V1000.69C123.084 999.397 122.751 998.414 122.089 997.74C121.426 997.066 120.4 996.728 119.015 996.728C117.628 996.728 116.603 997.066 115.941 997.74C115.277 998.414 114.946 999.397 114.946 1000.69V1014.32C114.946 1015.58 115.277 1016.57 115.941 1017.27C116.633 1017.94 117.659 1018.28 119.015 1018.28Z" fill="#E6E6E6"/>
<path d="M54.1726 1023.56V991.45H64.7971C67.1481 991.45 69.1825 991.846 70.9005 992.637C72.6185 993.429 73.9442 994.559 74.8791 996.024C75.8431 997.49 76.3258 999.221 76.3258 1001.21C76.3258 1003.3 75.7979 1005.16 74.7435 1006.8C73.7182 1008.44 72.3166 1009.63 70.5389 1010.36L76.7779 1023.56H69.4086L64.0737 1011.42H60.909V1023.56H54.1726ZM60.909 1005.7H64.7971C66.3036 1005.7 67.4645 1005.34 68.2783 1004.6C69.1227 1003.87 69.5442 1002.84 69.5442 1001.52C69.5442 1000.15 69.1227 999.074 68.2783 998.312C67.4645 997.55 66.3036 997.168 64.7971 997.168H60.909V1005.7Z" fill="#E6E6E6"/>
<path d="M0 1023.56V991.45H11.2574C13.5778 991.45 15.5976 991.876 17.3156 992.725C19.0643 993.575 20.4046 994.763 21.3394 996.288C22.3034 997.814 22.7861 999.602 22.7861 1001.65C22.7861 1003.68 22.3034 1005.47 21.3394 1007.02C20.3754 1008.55 19.0336 1009.73 17.3156 1010.58C15.5976 1011.43 13.5778 1011.86 11.2574 1011.86H6.78158V1023.56H0ZM6.78158 1005.92H11.2574C12.7042 1005.92 13.849 1005.54 14.6934 1004.78C15.567 1003.99 16.0046 1002.94 16.0046 1001.65C16.0046 1000.37 15.567 999.338 14.6934 998.576C13.849 997.784 12.7042 997.388 11.2574 997.388H6.78158V1005.92Z" fill="#E6E6E6"/>
<path d="M955.767 937.006C939.35 937.006 924.725 933.869 911.892 927.593C899.061 921.139 888.964 912.264 881.605 900.969C874.434 889.675 870.85 876.855 870.85 862.512C870.85 847.99 874.434 835.171 881.605 824.055C888.964 812.761 899.061 803.975 911.892 797.7C924.725 791.245 939.35 788.019 955.767 788.019C971.806 788.019 985.769 791.245 997.658 797.7C1009.55 803.975 1018.32 813.029 1023.98 824.863L989.733 842.342C985.769 835.53 980.77 830.51 974.73 827.282C968.881 824.055 962.465 822.442 955.482 822.442C947.935 822.442 941.142 824.055 935.103 827.282C929.065 830.51 924.252 835.082 920.667 840.999C917.271 846.914 915.572 854.085 915.572 862.512C915.572 870.939 917.271 878.111 920.667 884.026C924.252 889.943 929.065 894.515 935.103 897.743C941.142 900.969 947.935 902.583 955.482 902.583C962.465 902.583 968.881 901.059 974.73 898.011C980.77 894.784 985.769 889.675 989.733 882.682L1023.98 900.432C1018.32 912.085 1009.55 921.139 997.658 927.593C985.769 933.869 971.806 937.006 955.767 937.006Z" fill="#E6E6E6"/>
<path d="M813.138 937.006V820.607H854.183V937.006H813.138ZM833.66 804.381C826.117 804.381 819.979 802.577 815.242 798.972C810.507 795.366 808.138 790.895 808.138 785.558C808.138 780.22 810.507 775.749 815.242 772.144C819.979 768.539 826.117 766.735 833.66 766.735C841.203 766.735 847.342 768.466 852.079 771.927C856.814 775.244 859.182 779.572 859.182 784.909C859.182 790.535 856.814 795.221 852.079 798.972C847.518 802.577 841.378 804.381 833.66 804.381Z" fill="#E6E6E6"/>
<path d="M754.717 937.006C738.985 937.006 726.731 932.227 717.955 922.668C709.178 912.91 704.79 898.471 704.79 879.352V738.357H743.539V878.755C743.539 885.526 745.029 890.804 748.01 894.587C750.99 898.173 755.048 899.965 760.181 899.965C766.308 899.965 771.525 897.973 775.83 893.99L786.262 926.849C782.288 930.235 777.485 932.824 771.856 934.616C766.391 936.21 760.677 937.006 754.717 937.006ZM684.174 813.335V777.489H776.823V813.335H684.174Z" fill="#E6E6E6"/>
<path d="M605.204 937.006C588.639 937.006 574.055 933.779 561.452 927.324C549.027 920.87 539.395 912.085 532.553 900.969C525.712 889.675 522.291 876.855 522.291 862.512C522.291 847.99 525.622 835.171 532.284 824.055C539.125 812.761 548.398 803.975 560.101 797.7C571.805 791.245 585.039 788.019 599.802 788.019C614.026 788.019 626.81 791.067 638.152 797.162C649.676 803.079 658.768 811.685 665.43 822.98C672.092 834.096 675.423 847.452 675.423 863.05C675.423 864.663 675.333 866.546 675.153 868.697C674.973 870.67 674.793 872.553 674.612 874.345H556.591V849.873H652.466L636.262 857.133C636.262 849.604 634.732 843.06 631.671 837.502C628.61 831.945 624.379 827.641 618.977 824.593C613.577 821.366 607.275 819.753 600.072 819.753C592.87 819.753 586.478 821.366 580.897 824.593C575.495 827.641 571.264 832.034 568.203 837.771C565.143 843.328 563.612 849.962 563.612 857.671V864.126C563.612 872.015 565.322 879.007 568.744 885.103C572.344 891.019 577.296 895.59 583.598 898.818C590.079 901.866 597.642 903.39 606.285 903.39C614.026 903.39 620.778 902.224 626.539 899.894C632.482 897.563 637.882 894.066 642.745 889.405L665.16 913.609C658.498 921.139 650.126 926.966 640.044 931.089C629.96 935.034 618.347 937.006 605.204 937.006Z" fill="#E6E6E6"/>
<path d="M436.867 788.019C448.747 788.019 459.327 790.384 468.608 795.113C478.075 799.661 485.499 806.756 490.882 816.397C496.265 825.857 498.956 838.044 498.956 852.962V937.006H455.522V859.511C455.522 847.686 452.831 838.954 447.448 833.315C442.25 827.676 434.825 824.857 425.174 824.857C418.306 824.857 412.087 826.311 406.519 829.222C401.136 831.952 396.867 836.225 393.711 842.047C390.742 847.868 389.258 855.327 389.258 864.422V937.006H345.823V790.201H387.308V830.859L379.512 818.58C384.895 808.756 392.599 801.208 402.621 795.932C412.645 790.657 424.059 788.019 436.867 788.019Z" fill="#E6E6E6"/>
<path d="M247.511 937.006C232.655 937.006 219.441 933.779 207.867 927.324C196.466 920.87 187.398 912.085 180.66 900.969C174.096 889.675 170.814 876.855 170.814 862.512C170.814 847.99 174.096 835.171 180.66 824.055C187.398 812.761 196.466 803.975 207.867 797.7C219.441 791.245 232.655 788.019 247.511 788.019C262.194 788.019 275.321 791.245 286.895 797.7C298.469 803.975 307.537 812.671 314.101 823.787C320.666 834.903 323.947 847.811 323.947 862.512C323.947 876.855 320.666 889.675 314.101 900.969C307.537 912.085 298.469 920.87 286.895 927.324C275.321 933.779 262.194 937.006 247.511 937.006ZM247.511 902.583C254.247 902.583 260.294 900.969 265.647 897.743C271.003 894.515 275.235 889.943 278.344 884.026C281.454 877.93 283.008 870.759 283.008 862.512C283.008 854.085 281.454 846.914 278.344 840.999C275.235 835.082 271.003 830.51 265.647 827.282C260.294 824.055 254.247 822.442 247.511 822.442C240.774 822.442 234.728 824.055 229.372 827.282C224.019 830.51 219.699 835.082 216.417 840.999C213.308 846.914 211.753 854.085 211.753 862.512C211.753 870.759 213.308 877.93 216.417 884.026C219.699 889.943 224.019 894.515 229.372 897.743C234.728 900.969 240.774 902.583 247.511 902.583Z" fill="#E6E6E6"/>
<path d="M0.180908 937.006V904.016L108.525 740.008L113.53 758.546H2.1833V717.073H149.56V750.063L41.467 914.07L36.4617 895.532H153.314V937.006H0.180908Z" fill="#E6E6E6"/>
</svg>
